<?xml version="1.0" standalone="no"?>
<!DOCTYPE svg PUBLIC "-//W3C//DTD SVG 20010904//EN"
 "http://www.w3.org/TR/2001/REC-SVG-20010904/DTD/svg10.dtd">
<svg version="1.0" xmlns="http://www.w3.org/2000/svg"
 width="1000.000000pt" height="1000.000000pt" viewBox="0 0 1000.000000 1000.000000"
 preserveAspectRatio="xMidYMid meet">
<metadata>
Created by potrace 1.11, written by Peter Selinger 2001-2013
</metadata>
<g transform="translate(0.000000,1000.000000) scale(0.100000,-0.100000)"
fill="#000000" stroke="none">
<path d="M1423 7258 c83 -208 649 -1640 674 -1706 20 -51 39 -89 43 -85 4 4
96 234 205 511 109 276 202 499 206 495 4 -5 92 -224 194 -488 103 -264 192
-491 197 -505 9 -23 12 -18 44 60 135 329 694 1719 694 1724 0 3 -122 6 -271
6 -267 0 -270 0 -264 -20 4 -11 44 -117 90 -235 l83 -215 -100 -252 c-55 -139
-103 -256 -106 -260 -4 -4 -73 172 -154 391 l-148 398 40 92 c22 51 40 94 40
97 0 2 -142 4 -315 4 -200 0 -315 -4 -315 -10 0 -5 46 -131 101 -280 l101
-270 -82 -207 c-46 -115 -86 -211 -90 -216 -6 -7 -300 757 -300 782 0 7 38 53
85 100 47 48 85 90 85 94 0 4 -167 7 -371 7 -293 0 -370 -3 -366 -12z"/>
<path d="M3812 7261 c63 -174 714 -1799 719 -1793 3 4 95 233 204 510 109 276
202 499 206 495 4 -5 92 -224 194 -488 103 -264 192 -491 197 -505 9 -23 12
-18 44 60 135 329 694 1719 694 1724 0 3 -122 6 -271 6 l-270 0 7 -22 c4 -13
44 -119 89 -235 l83 -213 -100 -252 c-55 -139 -103 -256 -106 -260 -4 -4 -73
172 -154 391 l-148 398 40 92 c22 51 40 94 40 97 0 2 -142 4 -315 4 -200 0
-315 -4 -315 -10 0 -5 46 -131 101 -280 l101 -270 -82 -207 c-46 -115 -86
-211 -90 -216 -6 -7 -300 757 -300 782 0 7 38 53 85 100 47 48 85 90 85 94 0
4 -167 7 -371 7 -220 0 -369 -4 -367 -9z"/>
<path d="M6202 7261 c63 -174 714 -1799 719 -1793 3 4 95 233 204 510 109 276
202 499 206 495 4 -5 92 -224 194 -488 103 -264 192 -491 197 -505 9 -23 12
-18 44 60 135 329 694 1719 694 1724 0 3 -122 6 -271 6 -267 0 -270 0 -264
-20 4 -11 44 -117 90 -235 l83 -215 -100 -252 c-55 -139 -103 -256 -106 -260
-4 -4 -73 172 -154 391 l-148 398 40 92 c22 51 40 94 40 97 0 2 -142 4 -315 4
-200 0 -315 -4 -315 -10 0 -5 46 -131 101 -280 l101 -270 -82 -207 c-46 -115
-86 -211 -90 -216 -6 -7 -300 757 -300 782 0 7 38 53 85 100 47 48 85 90 85
94 0 4 -167 7 -371 7 -220 0 -369 -4 -367 -9z"/>
<path d="M6431 4539 c-93 -13 -224 -57 -298 -100 -32 -19 -101 -77 -154 -129
-85 -84 -102 -108 -148 -200 -68 -139 -91 -233 -98 -395 -18 -445 207 -786
588 -891 94 -26 333 -26 409 0 141 48 275 142 364 256 57 72 136 207 136 231
0 10 -15 22 -37 31 l-38 14 -90 -91 c-138 -139 -245 -185 -430 -185 -158 0
-277 49 -385 159 -124 125 -188 288 -197 501 -10 233 54 429 179 554 89 88
157 119 272 124 148 6 264 -43 367 -156 63 -69 88 -109 151 -234 l48 -98 45 0
45 0 0 305 0 305 -33 0 c-28 0 -39 -7 -65 -44 l-32 -45 -63 26 c-134 55 -378
83 -536 62z"/>
<path d="M2660 4475 l0 -45 68 0 c68 0 68 0 115 -48 l47 -48 0 -659 0 -660
-46 -47 -45 -48 -70 0 -69 0 0 -45 0 -45 410 0 410 0 0 45 0 45 -73 0 -74 0
-41 49 -42 50 0 658 0 659 48 47 c47 47 48 47 115 47 l67 0 0 45 0 45 -410 0
-410 0 0 -45z"/>
<path d="M3820 4484 c0 -29 16 -57 85 -152 l85 -116 0 -570 0 -570 -51 -78
-52 -78 -83 0 -84 0 0 -45 0 -45 340 0 340 0 0 45 0 45 -84 0 -84 0 -56 75
-56 75 2 501 3 502 479 -632 479 -631 69 0 68 0 0 738 0 737 51 73 50 72 80 0
79 0 0 45 0 45 -337 -2 -338 -3 -3 -42 -3 -43 85 0 86 0 55 -74 55 -73 -2
-445 -3 -444 -425 563 -425 563 -202 0 -203 0 0 -36z"/>
</g>
</svg>
